<?xml version="1.0" encoding="utf-8"?>
<!-- Generator: Adobe Illustrator 21.0.2, SVG Export Plug-In . SVG Version: 6.00 Build 0)  -->
<svg version="1.1" id="Ebene_1" xmlns="http://www.w3.org/2000/svg" xmlns:xlink="http://www.w3.org/1999/xlink" x="0px" y="0px"
	 viewBox="0 0 35.8 35.6" style="enable-background:new 0 0 35.8 35.6;" xml:space="preserve">
<style type="text/css">
	.st0{fill:#B4CF0E;}
</style>
<path class="st0" d="M29.3,23.2v-0.1c-0.3-1,0.3-2,1.3-2.3c1.7-0.5,3.4-0.9,5.1-1.4c0.1-1.4,0.1-2.8,0-4.1c-0.2-5.4-1.4-10.3-3.4-14
	C23.1-1.3,12.1,0.1,4.7,4.6c-4.5,7.3-6,18.4-3.4,27.7c3.7,2,8.7,3.1,14.1,3.3c1.8,0.1,3.5,0,5.3-0.1c-0.1-0.2-0.1-0.5,0-0.8
	c0.4-1.7,0.9-3.5,1.3-5.3c0.3-1,1.2-1.5,2.2-1.2h0.1c1,0.3,1.6,1.3,1.3,2.3c-0.4,1.6-0.9,3.1-1.3,4.6c3-0.4,5.9-1.1,8.7-2.1
	c1-3,1.8-6.3,2.2-9.5c-1.2,0.3-2.4,0.7-3.7,1C30.7,24.8,29.6,24.2,29.3,23.2z M20.3,27.6c-1.8,0.5-3.5,0.9-5.1,1.3
	c-0.8,0.2-1.7-0.4-1.9-1.3v-0.1c-0.2-0.9,0.2-1.9,1.1-2.1c1.6-0.5,3.3-1,5-1.5c0.9-0.3,1.9,0.3,2.1,1.3v0.1
	C21.8,26.3,21.3,27.3,20.3,27.6z M22.7,21.3C22.7,21.3,22.6,21.3,22.7,21.3c-0.8,0.8-1.9,0.8-2.6,0.1c-1.3-1.3-2.5-2.6-3.6-3.8
	c-0.6-0.6-0.5-1.7,0.1-2.4c0,0,0,0,0.1-0.1c0.7-0.7,1.7-0.8,2.3-0.2c1.2,1.2,2.4,2.4,3.7,3.7C23.4,19.4,23.4,20.5,22.7,21.3z
	 M26.5,20.3h-0.1c-1-0.3-1.6-1.2-1.3-2.2c0.5-1.8,1-3.6,1.6-5.3c0.3-0.9,1.2-1.4,2.2-1.2H29c1,0.2,1.5,1.1,1.3,2
	c-0.5,1.7-1,3.5-1.5,5.4C28.6,19.9,27.5,20.5,26.5,20.3z"/>
</svg>
